<mxfile host="65bd71144e">
    <diagram id="uBkHXFj68sN4Elo7zwen" name="Page-1">
        <mxGraphModel dx="830" dy="603" grid="1" gridSize="10" guides="1" tooltips="1" connect="1" arrows="1" fold="1" page="1" pageScale="1" pageWidth="850" pageHeight="1100" math="0" shadow="0">
            <root>
                <mxCell id="0"/>
                <mxCell id="1" parent="0"/>
                <mxCell id="2" value="No Account" style="ellipse;whiteSpace=wrap;html=1;aspect=fixed;" vertex="1" parent="1">
                    <mxGeometry x="90" y="110" width="80" height="80" as="geometry"/>
                </mxCell>
                <mxCell id="3" value="Non-Empty Account" style="ellipse;whiteSpace=wrap;html=1;aspect=fixed;" vertex="1" parent="1">
                    <mxGeometry x="390" y="110" width="80" height="80" as="geometry"/>
                </mxCell>
                <mxCell id="4" value="Max Account,&lt;br&gt;x" style="ellipse;whiteSpace=wrap;html=1;aspect=fixed;" vertex="1" parent="1">
                    <mxGeometry x="240" y="110" width="80" height="80" as="geometry"/>
                </mxCell>
                <mxCell id="5" value="Empty Account" style="ellipse;whiteSpace=wrap;html=1;aspect=fixed;" vertex="1" parent="1">
                    <mxGeometry x="390" y="230" width="80" height="80" as="geometry"/>
                </mxCell>
                <mxCell id="6" value="register&lt;br&gt;user" style="endArrow=classic;html=1;" edge="1" parent="1" target="4">
                    <mxGeometry x="-0.1429" width="50" height="50" relative="1" as="geometry">
                        <mxPoint x="170" y="150" as="sourcePoint"/>
                        <mxPoint x="220" y="100" as="targetPoint"/>
                        <mxPoint as="offset"/>
                    </mxGeometry>
                </mxCell>
                <mxCell id="8" value="New Montrh" style="endArrow=classic;html=1;entryX=1;entryY=0;entryDx=0;entryDy=0;" edge="1" parent="1" target="4">
                    <mxGeometry width="50" height="50" relative="1" as="geometry">
                        <mxPoint x="260" y="110" as="sourcePoint"/>
                        <mxPoint x="310" y="60" as="targetPoint"/>
                        <Array as="points">
                            <mxPoint x="270" y="60"/>
                            <mxPoint x="290" y="60"/>
                            <mxPoint x="300" y="80"/>
                        </Array>
                    </mxGeometry>
                </mxCell>
                <mxCell id="9" value="spend&lt;br&gt;y" style="endArrow=classic;html=1;entryX=0;entryY=0.5;entryDx=0;entryDy=0;" edge="1" parent="1" target="3">
                    <mxGeometry width="50" height="50" relative="1" as="geometry">
                        <mxPoint x="320" y="150" as="sourcePoint"/>
                        <mxPoint x="370" y="100" as="targetPoint"/>
                    </mxGeometry>
                </mxCell>
                <mxCell id="10" value="spend&lt;br&gt;all" style="endArrow=classic;html=1;entryX=0.083;entryY=0.294;entryDx=0;entryDy=0;entryPerimeter=0;" edge="1" parent="1" target="5">
                    <mxGeometry width="50" height="50" relative="1" as="geometry">
                        <mxPoint x="310" y="180" as="sourcePoint"/>
                        <mxPoint x="350" y="130" as="targetPoint"/>
                    </mxGeometry>
                </mxCell>
                <mxCell id="11" value="spend all" style="endArrow=classic;html=1;" edge="1" parent="1" target="5">
                    <mxGeometry width="50" height="50" relative="1" as="geometry">
                        <mxPoint x="430" y="190" as="sourcePoint"/>
                        <mxPoint x="480" y="140" as="targetPoint"/>
                    </mxGeometry>
                </mxCell>
                <mxCell id="13" value="spend y" style="endArrow=classic;html=1;entryX=1;entryY=0.5;entryDx=0;entryDy=0;" edge="1" parent="1" target="3">
                    <mxGeometry width="50" height="50" relative="1" as="geometry">
                        <mxPoint x="450" y="110" as="sourcePoint"/>
                        <mxPoint x="540" y="120" as="targetPoint"/>
                        <Array as="points">
                            <mxPoint x="500" y="110"/>
                            <mxPoint x="500" y="130"/>
                        </Array>
                    </mxGeometry>
                </mxCell>
                <mxCell id="14" value="New Month" style="endArrow=classic;html=1;" edge="1" parent="1">
                    <mxGeometry width="50" height="50" relative="1" as="geometry">
                        <mxPoint x="430" y="110" as="sourcePoint"/>
                        <mxPoint x="320" y="120" as="targetPoint"/>
                        <Array as="points">
                            <mxPoint x="410" y="80"/>
                            <mxPoint x="370" y="80"/>
                        </Array>
                    </mxGeometry>
                </mxCell>
                <mxCell id="15" value="New Month" style="endArrow=classic;html=1;entryX=0.417;entryY=1.002;entryDx=0;entryDy=0;entryPerimeter=0;" edge="1" parent="1" target="4">
                    <mxGeometry width="50" height="50" relative="1" as="geometry">
                        <mxPoint x="390" y="280" as="sourcePoint"/>
                        <mxPoint x="440" y="230" as="targetPoint"/>
                        <Array as="points">
                            <mxPoint x="340" y="270"/>
                            <mxPoint x="310" y="240"/>
                        </Array>
                    </mxGeometry>
                </mxCell>
            </root>
        </mxGraphModel>
    </diagram>
</mxfile>